<?xml version="1.0" encoding="UTF-8" standalone="no"?>
<svg
   id="fe93ff64-a18b-49f4-bb52-e425cf20d0d6"
   data-name="Layer 1"
   width="1110.6104"
   height="1289.9141"
   viewBox="0 0 1110.6104 1289.914"
   version="1.1"
   sodipodi:docname="undraw_posting_photo.svg"
   inkscape:version="1.4 (86a8ad7, 2024-10-11)"
   xmlns:inkscape="http://www.inkscape.org/namespaces/inkscape"
   xmlns:sodipodi="http://sodipodi.sourceforge.net/DTD/sodipodi-0.dtd"
   xmlns="http://www.w3.org/2000/svg"
   xmlns:svg="http://www.w3.org/2000/svg">
  <defs
     id="defs52" />
  <sodipodi:namedview
     id="namedview52"
     pagecolor="#ffffff"
     bordercolor="#000000"
     borderopacity="0.25"
     inkscape:showpageshadow="2"
     inkscape:pageopacity="0.0"
     inkscape:pagecheckerboard="0"
     inkscape:deskcolor="#d1d1d1"
     inkscape:zoom="0.15058248"
     inkscape:cx="1122.3085"
     inkscape:cy="312.1213"
     inkscape:window-width="1366"
     inkscape:window-height="697"
     inkscape:window-x="-8"
     inkscape:window-y="-8"
     inkscape:window-maximized="1"
     inkscape:current-layer="fe93ff64-a18b-49f4-bb52-e425cf20d0d6" />
  <title
     id="title1">posting photo</title>
  <ellipse
     cx="574.35535"
     cy="882.08789"
     rx="525"
     ry="33"
     fill="#4e73df"
     opacity="0.1"
     id="ellipse1" />
  <polygon
     points="496.04,543.14 496.92,548.85 497.09,549.99 318.9,547.71 319.43,543.14 328.04,467.75 484.53,467.75 "
     fill="#d0d2d5"
     id="polygon1"
     transform="translate(49.355325,321.06784)" />
  <polygon
     points="496.92,548.85 408,548.85 318.9,547.71 319.43,543.14 496.04,543.14 "
     opacity="0.1"
     id="polygon2"
     transform="translate(49.355325,321.06784)" />
  <rect
     x="338.55533"
     y="865.3479"
     width="236.45"
     height="5.71"
     fill="#d0d2d5"
     id="rect2" />
  <path
     d="m 800.59532,336.00784 a 14.87,14.87 0 0 0 -14.8,-14.93 h -660.32 a 14.87,14.87 0 0 0 -14.79999,14.94 v 400.26 h 689.91999 z"
     fill="#3f3d56"
     id="path2" />
  <path
     d="m 110.67533,732.27784 v 46.88 a 14.8,14.8 0 0 0 14.79999,14.8 h 660.32 a 14.8,14.8 0 0 0 14.8,-14.8 v -46.88 z"
     fill="#d0d2d5"
     id="path3" />
  <rect
     x="139.23532"
     y="346.19785"
     width="636.22998"
     height="359.81"
     fill="#ffffff"
     id="rect3" />
  <path
     d="m 459.06532,776.16784 a 15.43,15.43 0 0 0 12.13,-5.88 v 0 a 16.06,16.06 0 0 0 1.2,-1.76 l -8.47,-1.45 9.15,0.07 a 15.44,15.44 0 0 0 0.29,-12.22 l -12.27,6.36 11.32,-8.32 a 15.42,15.42 0 1 0 -25.47,17.26 v 0 a 15.43,15.43 0 0 0 12.12,5.94 z"
     fill="#4e73df"
     id="path4" />
  <polygon
     points="496.22,544.28 485.31,472.89 425.13,472.89 "
     opacity="0.1"
     id="polygon4"
     transform="translate(49.355325,321.06784)" />
  <path
     d="m 684.29532,532.17784 a 1.48,1.48 0 0 0 0,-0.21 55.29,55.29 0 0 0 -2.66,-14.57 c -0.09,-0.27 -0.17,-0.54 -0.27,-0.8 a 55.77,55.77 0 0 0 -21.32,-28 55.47,55.47 0 0 0 -72.69,9 78.52,78.52 0 0 0 -4.43,-15.52 248.45,248.45 0 0 1 -44,1.64 177.65,177.65 0 0 0 27.91,10.14 l -0.34,1.27 a 178.73,178.73 0 0 1 -31.19,-11.67 l -3,-1.46 3.36,0.22 a 249.73,249.73 0 0 0 46.82,-1.35 79.17,79.17 0 0 0 -13.8,-21.9 c -25.18,-2.54 -50.17,-7.82 -73.48,-18.3 l 0.54,-1.19 c 22.7,10.2 47,15.45 71.61,18 a 78.63,78.63 0 0 0 -125,13.28 108.05,108.05 0 0 0 -26.84,-60.68 251.7,251.7 0 0 1 -41.45,12.56 250.58,250.58 0 0 1 -64.81,5.14 177.9,177.9 0 0 0 27.9,10.14 l -0.34,1.26 a 179,179 0 0 1 -31.19,-11.66 l -3,-1.47 3.35,0.22 a 248.9,248.9 0 0 0 108.62,-17.19 c -1.29,-1.42 -2.63,-2.81 -4,-4.17 -43.06,0.87 -89.95,0.45 -132.4,-15 a 108.28,108.28 0 0 0 -51.4,92.17 c 0,20.32 5.58,48.27 15.3,76.31 a 325.56,325.56 0 0 0 15.26,36.75 c 3,6 6.12,11.9 9.44,17.52 v 0 a 198.58,198.58 0 0 0 13.16,19.71 c 0.86,1.13 1.73,2.24 2.6,3.32 a 120.36,120.36 0 0 0 16.42,17 v 0 q 1.82,1.52 3.67,2.9 a 69.49,69.49 0 0 0 10.53,6.49 48.34,48.34 0 0 0 19.81,5.38 c 0.55,0 1.09,0 1.64,0 v 0.23 h 294 v -0.23 h 0.22 a 14.74,14.74 0 0 0 5,-0.88 c 10.4,-3.69 20,-18.5 27.93,-37.21 1.76,-4.15 3.44,-8.49 5,-12.95 1.41,-3.93 2.75,-8 4,-12 a 371.64,371.64 0 0 0 9.25,-36.12 c 2.8,-13.88 4.35,-26 4.35,-33.68 -0.02,-0.78 -0.02,-1.61 -0.08,-2.44 z"
     fill="#4e73df"
     opacity="0.1"
     id="path5" />
  <path
     d="m 409.26532,403.57784 a 107.89,107.89 0 0 0 -129.62,-14.61 c 41.54,14.88 87.39,15.43 129.62,14.61 z"
     fill="#4e73df"
     opacity="0.1"
     id="path6" />
  <path
     d="m 650.07532,645.12784 -45.37,-78.59 a 1.45,1.45 0 0 0 -2.51,0 l -45.37,78.59 a 1.45,1.45 0 0 0 1.25,2.17 h 13.54 a 1.46,1.46 0 0 1 1.45,1.44 v 16.79 a 1.44,1.44 0 0 0 1.44,1.45 h 17.66 a 1.45,1.45 0 0 0 1.45,-1.45 v -8.1 a 1.44,1.44 0 0 1 1.44,-1.45 h 16.79 a 1.45,1.45 0 0 1 1.45,1.45 v 8.1 a 1.45,1.45 0 0 0 1.45,1.45 h 17.61 a 1.44,1.44 0 0 0 1.37,-1 1.34,1.34 0 0 0 0.08,-0.46 v -16.78 a 1.45,1.45 0 0 1 1.45,-1.44 h 13.53 a 1.45,1.45 0 0 0 1.29,-2.17 z m -63.26,8.69 a 1.4,1.4 0 0 1 -1,0.43 h -6.37 a 1.45,1.45 0 0 1 -1.45,-1.45 1.47,1.47 0 0 1 1.45,-1.45 h 6.37 a 1.45,1.45 0 0 1 1.45,1.45 1.4,1.4 0 0 1 -0.45,1.02 z m 41.68,0 a 1.4,1.4 0 0 1 -1,0.43 h -6.37 a 1.45,1.45 0 0 1 -1,-2.47 1.4,1.4 0 0 1 1,-0.43 h 6.37 a 1.45,1.45 0 0 1 1.45,1.45 1.4,1.4 0 0 1 -0.45,1.02 z"
     fill="#4e73df"
     opacity="0.1"
     id="path7" />
  <path
     d="m 369.63532,645.81784 -45.37,-78.59 a 1.45,1.45 0 0 0 -2.5,0 l -39.2,67.85 a 119.89,119.89 0 0 0 16.42,17 h 6.37 a 1.45,1.45 0 0 1 1.45,1.45 1.47,1.47 0 0 1 -1.45,1.45 h -2.69 a 70.22,70.22 0 0 0 10.51,6.53 v -3.43 a 1.44,1.44 0 0 1 1.45,-1.44 h 16.79 a 1.44,1.44 0 0 1 1.44,1.44 v 8.1 a 1.51,1.51 0 0 0 0.13,0.61 1.44,1.44 0 0 0 1.32,0.84 h 17.66 a 1.41,1.41 0 0 0 1.15,-0.58 1.44,1.44 0 0 0 0.29,-0.87 v -16.74 a 1.45,1.45 0 0 1 1.45,-1.45 h 13.5 a 1.44,1.44 0 0 0 1.28,-2.17 z m -30,6.65 a 1.43,1.43 0 0 1 1,-0.43 h 6.36 a 1.45,1.45 0 0 1 1.45,1.45 1.45,1.45 0 0 1 -1.45,1.45 h -6.36 a 1.45,1.45 0 0 1 -1.45,-1.45 1.44,1.44 0 0 1 0.46,-1.02 z m -28.5,-29.08 a 1.44,1.44 0 0 1 -1.44,-1.45 v -11 a 1.44,1.44 0 0 1 1.44,-1.45 h 23.74 a 1.45,1.45 0 0 1 1.44,1.45 v 11 a 1.45,1.45 0 0 1 -1.44,1.45 z"
     fill="#4e73df"
     opacity="0.1"
     id="path8" />
  <path
     d="m 548.98532,504.64784 h -56.15 v -12.15 a 2.9,2.9 0 0 0 -2.9,-2.9 h -16.49 v -12.94 a 1.82,1.82 0 0 0 -1.83,-1.82 h -21.26 a 1.83,1.83 0 0 0 -1.83,1.82 v 12.94 h -19.36 a 2.9,2.9 0 0 0 -2.9,2.9 v 12.14 h -53.54 a 0.58,0.58 0 0 0 -0.59,0.59 v 161.2 a 0.58,0.58 0 0 0 0.59,0.59 h 35.63 a 0.58,0.58 0 0 0 0.59,-0.59 v -21.67 a 0.6,0.6 0 0 1 0.59,-0.6 h 15 a 0.6,0.6 0 0 1 0.59,0.6 v 21.68 a 0.58,0.58 0 0 0 0.59,0.59 h 70.32 a 0.59,0.59 0 0 0 0.59,-0.59 v -21.68 a 0.59,0.59 0 0 1 0.58,-0.6 h 15 a 0.59,0.59 0 0 1 0.59,0.6 v 21.68 a 0.59,0.59 0 0 0 0.59,0.59 h 35.59 a 0.59,0.59 0 0 0 0.59,-0.59 v -161.2 a 0.59,0.59 0 0 0 -0.58,-0.59 z m -146.46,132 a 0.58,0.58 0 0 1 -0.59,0.59 h -22 a 0.58,0.58 0 0 1 -0.59,-0.59 v -7.5 a 0.59,0.59 0 0 1 0.59,-0.6 h 22 a 0.59,0.59 0 0 1 0.59,0.6 z m 0,-19.39 a 0.59,0.59 0 0 1 -0.59,0.59 h -22 a 0.59,0.59 0 0 1 -0.59,-0.59 v -7.51 a 0.59,0.59 0 0 1 0.59,-0.59 h 22 a 0.59,0.59 0 0 1 0.59,0.59 z m 0,-19.4 a 0.58,0.58 0 0 1 -0.59,0.59 h -22 a 0.58,0.58 0 0 1 -0.59,-0.59 v -7.5 a 0.58,0.58 0 0 1 0.59,-0.59 h 22 a 0.58,0.58 0 0 1 0.59,0.59 z m 0,-19.39 a 0.58,0.58 0 0 1 -0.59,0.59 h -22 a 0.58,0.58 0 0 1 -0.59,-0.59 v -7.5 a 0.58,0.58 0 0 1 0.59,-0.59 h 22 a 0.58,0.58 0 0 1 0.59,0.59 z m 0,-19.39 a 0.59,0.59 0 0 1 -0.59,0.59 h -22 a 0.59,0.59 0 0 1 -0.58,-0.59 v -7.51 a 0.59,0.59 0 0 1 0.59,-0.59 h 22 a 0.59,0.59 0 0 1 0.59,0.59 z m 0,-19.4 a 0.58,0.58 0 0 1 -0.59,0.59 h -22 a 0.58,0.58 0 0 1 -0.59,-0.59 v -7.5 a 0.58,0.58 0 0 1 0.59,-0.59 h 22 a 0.58,0.58 0 0 1 0.59,0.59 z m 0,-19.39 a 0.58,0.58 0 0 1 -0.59,0.59 h -22 a 0.58,0.58 0 0 1 -0.59,-0.59 v -7.5 a 0.58,0.58 0 0 1 0.59,-0.59 h 22 a 0.58,0.58 0 0 1 0.59,0.59 z m 52.1,116.36 a 0.58,0.58 0 0 1 -0.59,0.59 h -22 a 0.58,0.58 0 0 1 -0.59,-0.59 v -7.5 a 0.59,0.59 0 0 1 0.59,-0.6 h 22 a 0.59,0.59 0 0 1 0.59,0.6 z m 0,-19.39 a 0.59,0.59 0 0 1 -0.59,0.59 h -22 a 0.59,0.59 0 0 1 -0.59,-0.59 v -7.51 a 0.59,0.59 0 0 1 0.59,-0.59 h 22 a 0.59,0.59 0 0 1 0.59,0.59 z m 0,-19.4 a 0.58,0.58 0 0 1 -0.59,0.59 h -22 a 0.58,0.58 0 0 1 -0.59,-0.59 v -7.5 a 0.58,0.58 0 0 1 0.59,-0.59 h 22 a 0.58,0.58 0 0 1 0.59,0.59 z m 0,-19.39 a 0.58,0.58 0 0 1 -0.59,0.59 h -22 a 0.58,0.58 0 0 1 -0.59,-0.59 v -7.5 a 0.58,0.58 0 0 1 0.59,-0.59 h 22 a 0.58,0.58 0 0 1 0.59,0.59 z m 0,-19.39 a 0.59,0.59 0 0 1 -0.59,0.59 h -22 a 0.59,0.59 0 0 1 -0.59,-0.59 v -7.51 a 0.59,0.59 0 0 1 0.59,-0.59 h 22 a 0.59,0.59 0 0 1 0.59,0.59 z m 0,-19.4 a 0.58,0.58 0 0 1 -0.59,0.59 h -22 a 0.58,0.58 0 0 1 -0.59,-0.59 v -7.5 a 0.58,0.58 0 0 1 0.59,-0.59 h 22 a 0.58,0.58 0 0 1 0.59,0.59 z m 0,-19.39 a 0.58,0.58 0 0 1 -0.59,0.59 h -22 a 0.58,0.58 0 0 1 -0.59,-0.59 v -7.5 a 0.58,0.58 0 0 1 0.59,-0.59 h 22 a 0.58,0.58 0 0 1 0.59,0.59 z m 35.61,116.36 a 0.59,0.59 0 0 1 -0.59,0.59 h -22 a 0.59,0.59 0 0 1 -0.59,-0.59 v -7.5 a 0.6,0.6 0 0 1 0.59,-0.6 h 22 a 0.6,0.6 0 0 1 0.59,0.6 z m 0,-19.39 a 0.6,0.6 0 0 1 -0.59,0.59 h -22 a 0.6,0.6 0 0 1 -0.59,-0.59 v -7.51 a 0.6,0.6 0 0 1 0.59,-0.59 h 22 a 0.6,0.6 0 0 1 0.59,0.59 z m 0,-19.4 a 0.59,0.59 0 0 1 -0.59,0.59 h -22 a 0.59,0.59 0 0 1 -0.59,-0.59 v -7.5 a 0.59,0.59 0 0 1 0.59,-0.59 h 22 a 0.59,0.59 0 0 1 0.59,0.59 z m 0,-19.39 a 0.59,0.59 0 0 1 -0.59,0.59 h -22 a 0.59,0.59 0 0 1 -0.59,-0.59 v -7.5 a 0.59,0.59 0 0 1 0.59,-0.59 h 22 a 0.59,0.59 0 0 1 0.59,0.59 z m 0,-19.39 a 0.6,0.6 0 0 1 -0.59,0.59 h -22 a 0.6,0.6 0 0 1 -0.59,-0.59 v -7.51 a 0.6,0.6 0 0 1 0.59,-0.59 h 22 a 0.6,0.6 0 0 1 0.59,0.59 z m 0,-19.4 a 0.59,0.59 0 0 1 -0.59,0.59 h -22 a 0.59,0.59 0 0 1 -0.59,-0.59 v -7.5 a 0.59,0.59 0 0 1 0.59,-0.59 h 22 a 0.59,0.59 0 0 1 0.59,0.59 z m 0,-19.39 a 0.59,0.59 0 0 1 -0.59,0.59 h -22 a 0.59,0.59 0 0 1 -0.59,-0.59 v -7.5 a 0.59,0.59 0 0 1 0.59,-0.59 h 22 a 0.59,0.59 0 0 1 0.59,0.59 z m 52.12,116.34 a 0.59,0.59 0 0 1 -0.59,0.59 h -22 a 0.58,0.58 0 0 1 -0.59,-0.59 v -7.5 a 0.59,0.59 0 0 1 0.59,-0.6 h 22 a 0.6,0.6 0 0 1 0.59,0.6 z m 0,-19.39 a 0.6,0.6 0 0 1 -0.59,0.59 h -22 a 0.59,0.59 0 0 1 -0.59,-0.59 v -7.51 a 0.59,0.59 0 0 1 0.59,-0.59 h 22 a 0.6,0.6 0 0 1 0.59,0.59 z m 0,-19.4 a 0.59,0.59 0 0 1 -0.59,0.59 h -22 a 0.58,0.58 0 0 1 -0.59,-0.59 v -7.5 a 0.58,0.58 0 0 1 0.59,-0.59 h 22 a 0.59,0.59 0 0 1 0.59,0.59 z m 0,-19.39 a 0.59,0.59 0 0 1 -0.59,0.59 h -22 a 0.58,0.58 0 0 1 -0.59,-0.59 v -7.5 a 0.58,0.58 0 0 1 0.59,-0.59 h 22 a 0.59,0.59 0 0 1 0.59,0.59 z m 0,-19.37 a 0.6,0.6 0 0 1 -0.59,0.59 h -22 a 0.59,0.59 0 0 1 -0.59,-0.59 v -7.51 a 0.59,0.59 0 0 1 0.59,-0.59 h 22 a 0.6,0.6 0 0 1 0.59,0.59 z m 0,-19.4 a 0.59,0.59 0 0 1 -0.59,0.59 h -22 a 0.58,0.58 0 0 1 -0.59,-0.59 v -7.5 a 0.58,0.58 0 0 1 0.59,-0.59 h 22 a 0.59,0.59 0 0 1 0.59,0.59 z m 0,-19.39 a 0.59,0.59 0 0 1 -0.59,0.59 h -22 a 0.58,0.58 0 0 1 -0.59,-0.59 v -7.5 a 0.58,0.58 0 0 1 0.59,-0.59 h 22 a 0.59,0.59 0 0 1 0.59,0.59 z"
     fill="#4e73df"
     opacity="0.1"
     id="path9" />
  <path
     d="m 389.05532,460.94784 a 12.6,12.6 0 0 0 -7.33,0.8 10.79,10.79 0 0 1 -8.81,0 12.37,12.37 0 0 0 -10.36,0.2 6.33,6.33 0 0 1 -3,0.75 c -4.2,0 -7.7,-4.23 -8.42,-9.81 a 8.11,8.11 0 0 0 2.09,-2.27 c 2.47,-4 6.28,-6.51 10.56,-6.51 4.28,0 8.06,2.51 10.52,6.44 a 8.1,8.1 0 0 0 7,3.83 h 0.11 c 3.34,-0.02 6.24,2.7 7.64,6.57 z"
     fill="#4e73df"
     opacity="0.1"
     id="path10" />
  <path
     d="m 401.85532,443.42784 -6.79,4.31 4.12,-7.5 a 6.73,6.73 0 0 0 -4.1,-1.46 h -0.11 a 8.22,8.22 0 0 1 -1.41,-0.1 l -2.3,1.45 1,-1.79 a 8.19,8.19 0 0 1 -4,-3.05 l -4.12,2.61 2.6,-4.73 a 12.05,12.05 0 0 0 -9.22,-4.67 c -4.29,0 -8.1,2.55 -10.57,6.52 a 7.87,7.87 0 0 1 -7,3.76 h -0.23 c -4.72,0 -8.56,5.36 -8.56,12 0,6.64 3.84,12 8.56,12 a 6.48,6.48 0 0 0 3,-0.74 12.3,12.3 0 0 1 10.36,-0.2 10.9,10.9 0 0 0 8.81,0 12.35,12.35 0 0 1 10.27,0.19 6.31,6.31 0 0 0 3,0.73 c 4.72,0 8.56,-5.36 8.56,-12 a 15.22,15.22 0 0 0 -1.87,-7.33 z"
     fill="#4e73df"
     opacity="0.1"
     id="path11" />
  <rect
     x="554.81531"
     y="424.03784"
     width="371.54001"
     height="447.42001"
     rx="19.799999"
     fill="#3f3d56"
     id="rect11" />
  <rect
     x="571.35535"
     y="469.17786"
     width="336"
     height="357.14999"
     fill="#ffffff"
     id="rect12" />
  <circle
     cx="740.58533"
     cy="849.86786"
     r="13.08"
     fill="#ffffff"
     id="circle12" />
  <path
     d="m 740.58532,456.24784 a 6,6 0 1 1 6,-6 6,6 0 0 1 -6,6 z"
     fill="#ffffff"
     id="path12" />
  <path
     d="m 740.58532,444.65784 a 5.55,5.55 0 1 1 -5.54,5.55 5.55,5.55 0 0 1 5.54,-5.55 m 0,-1 a 6.55,6.55 0 1 0 6.54,6.55 6.54,6.54 0 0 0 -6.54,-6.55 z"
     fill="#ffffff"
     id="path13" />
  <path
     d="m 873.55532,654.37784 c 0,0 0,-0.08 0,-0.12 a 32.12,32.12 0 0 0 -1.55,-8.47 l -0.15,-0.46 a 32.51,32.51 0 0 0 -12.41,-16.25 32.23,32.23 0 0 0 -42.25,5.22 47.14,47.14 0 0 0 -2.57,-9 144.23,144.23 0 0 1 -25.59,1 102.72,102.72 0 0 0 16.22,5.78 l -0.2,0.74 a 103.56,103.56 0 0 1 -18.13,-6.74 l -1.76,-0.85 2,0.13 a 144.61,144.61 0 0 0 27.22,-0.78 46.08,46.08 0 0 0 -8,-12.73 c -14.64,-1.48 -29.17,-4.55 -42.72,-10.64 l 0.31,-0.7 c 13.2,5.94 27.35,9 41.63,10.49 a 45.71,45.71 0 0 0 -72.66,7.72 62.74,62.74 0 0 0 -15.59,-35.33 147.66,147.66 0 0 1 -24.1,7.3 145.91,145.91 0 0 1 -37.68,3 102.72,102.72 0 0 0 16.22,5.89 l -0.2,0.73 a 102.73,102.73 0 0 1 -18.13,-6.78 l -1.76,-0.85 2,0.13 a 144.71,144.71 0 0 0 63.16,-10 c -0.75,-0.83 -1.53,-1.63 -2.33,-2.42 -25,0.5 -52.29,0.26 -77,-8.73 a 62.93,62.93 0 0 0 -29.89,53.62 c 0,11.81 3.25,28.06 8.9,44.36 a 187.93,187.93 0 0 0 8.81,21.35 c 1.72,3.51 3.55,6.92 5.48,10.18 v 0 a 117,117 0 0 0 7.65,11.46 c 0.5,0.65 1,1.3 1.52,1.93 a 69.63,69.63 0 0 0 9.54,9.87 v 0 c 0.71,0.59 1.42,1.15 2.14,1.68 a 40.31,40.31 0 0 0 6.11,3.81 28,28 0 0 0 11.56,3.16 c 0.31,0 0.63,0 0.95,0 v 0.13 h 170.86 v -0.13 h 0.12 a 8.76,8.76 0 0 0 2.89,-0.51 c 6,-2.15 11.61,-10.76 16.23,-21.64 1,-2.41 2,-4.93 2.94,-7.52 0.82,-2.29 1.59,-4.63 2.33,-7 a 215.07,215.07 0 0 0 5.38,-21 110.27,110.27 0 0 0 2.53,-19.58 c 0,-0.48 -0.01,-0.96 -0.03,-1.45 z"
     fill="#4e73df"
     opacity="0.1"
     id="path14" />
  <path
     d="m 713.66532,579.61784 a 62.72,62.72 0 0 0 -75.31,-8.49 c 24.11,8.65 50.76,8.95 75.31,8.49 z"
     fill="#4e73df"
     opacity="0.1"
     id="path15" />
  <path
     d="m 853.65532,720.07784 -26.37,-45.69 a 0.84,0.84 0 0 0 -1.46,0 l -26.38,45.69 a 0.84,0.84 0 0 0 0.73,1.26 h 7.87 a 0.85,0.85 0 0 1 0.84,0.84 v 9.76 a 0.85,0.85 0 0 0 0.84,0.84 h 10.27 a 0.85,0.85 0 0 0 0.84,-0.84 v -4.71 a 0.83,0.83 0 0 1 0.84,-0.84 h 9.76 a 0.84,0.84 0 0 1 0.84,0.84 v 4.71 a 0.85,0.85 0 0 0 0.84,0.84 h 10.24 a 0.84,0.84 0 0 0 0.8,-0.57 0.86,0.86 0 0 0 0,-0.27 v -9.76 a 0.84,0.84 0 0 1 0.84,-0.84 h 7.87 a 0.84,0.84 0 0 0 0.79,-1.26 z m -36.77,5 a 0.86,0.86 0 0 1 -0.6,0.25 h -3.7 a 0.85,0.85 0 0 1 -0.84,-0.84 0.81,0.81 0 0 1 0.25,-0.6 0.84,0.84 0 0 1 0.59,-0.25 h 3.7 a 0.85,0.85 0 0 1 0.85,0.85 0.84,0.84 0 0 1 -0.25,0.59 z m 24.23,0 a 0.86,0.86 0 0 1 -0.6,0.25 h -3.7 a 0.85,0.85 0 0 1 0,-1.69 h 3.7 a 0.85,0.85 0 0 1 0.85,0.85 0.84,0.84 0 0 1 -0.25,0.59 z"
     fill="#4e73df"
     opacity="0.1"
     id="path16" />
  <path
     d="m 690.62532,720.44784 -26.37,-45.69 a 0.84,0.84 0 0 0 -1.46,0 l -22.78,39.46 a 69.45,69.45 0 0 0 9.54,9.86 h 3.7 a 0.84,0.84 0 0 1 0.6,1.43 0.81,0.81 0 0 1 -0.6,0.25 h -1.56 a 41,41 0 0 0 6.11,3.8 v -2 a 0.84,0.84 0 0 1 0.84,-0.84 h 9.76 a 0.85,0.85 0 0 1 0.84,0.84 v 4.71 a 0.78,0.78 0 0 0 0.08,0.35 0.83,0.83 0 0 0 0.76,0.49 h 10.27 a 0.84,0.84 0 0 0 0.67,-0.34 0.86,0.86 0 0 0 0.17,-0.5 v -9.76 a 0.84,0.84 0 0 1 0.84,-0.84 h 7.87 a 0.84,0.84 0 0 0 0.72,-1.22 z m -17.43,3.86 a 0.83,0.83 0 0 1 0.59,-0.24 h 3.71 a 0.83,0.83 0 0 1 0.59,1.43 0.8,0.8 0 0 1 -0.59,0.25 h -3.71 a 0.85,0.85 0 0 1 -0.84,-0.84 0.86,0.86 0 0 1 0.25,-0.6 z m -16.57,-16.9 a 0.84,0.84 0 0 1 -0.84,-0.85 v -6.39 a 0.84,0.84 0 0 1 0.84,-0.84 h 13.8 a 0.85,0.85 0 0 1 0.84,0.84 v 6.39 a 0.85,0.85 0 0 1 -0.84,0.85 z"
     fill="#4e73df"
     opacity="0.1"
     id="path17" />
  <path
     d="m 794.88532,638.37784 h -32.64 v -7.05 a 1.69,1.69 0 0 0 -1.69,-1.69 h -9.58 v -7.56 a 1.06,1.06 0 0 0 -1.06,-1.06 h -12.35 a 1.05,1.05 0 0 0 -1.06,1.06 v 7.52 h -11.27 a 1.69,1.69 0 0 0 -1.69,1.69 v 7.05 h -31.12 a 0.35,0.35 0 0 0 -0.35,0.34 v 93.72 a 0.35,0.35 0 0 0 0.35,0.34 h 20.68 a 0.34,0.34 0 0 0 0.34,-0.34 v -12.57 a 0.35,0.35 0 0 1 0.35,-0.34 h 8.73 a 0.35,0.35 0 0 1 0.35,0.34 v 12.61 a 0.34,0.34 0 0 0 0.34,0.34 h 40.88 a 0.34,0.34 0 0 0 0.34,-0.34 v -12.61 a 0.34,0.34 0 0 1 0.34,-0.34 h 8.74 a 0.34,0.34 0 0 1 0.34,0.34 v 12.61 a 0.35,0.35 0 0 0 0.35,0.34 h 20.68 a 0.34,0.34 0 0 0 0.34,-0.34 v -93.72 a 0.34,0.34 0 0 0 -0.34,-0.34 z m -85.14,76.7 a 0.34,0.34 0 0 1 -0.34,0.34 h -12.78 a 0.34,0.34 0 0 1 -0.34,-0.34 v -4.37 a 0.34,0.34 0 0 1 0.34,-0.34 h 12.78 a 0.34,0.34 0 0 1 0.34,0.34 z m 0,-11.28 a 0.34,0.34 0 0 1 -0.34,0.34 h -12.78 a 0.34,0.34 0 0 1 -0.34,-0.34 v -4.36 a 0.34,0.34 0 0 1 0.34,-0.34 h 12.78 a 0.34,0.34 0 0 1 0.34,0.34 z m 0,-11.27 a 0.34,0.34 0 0 1 -0.34,0.34 h -12.78 a 0.34,0.34 0 0 1 -0.34,-0.34 v -4.37 a 0.34,0.34 0 0 1 0.34,-0.34 h 12.78 a 0.34,0.34 0 0 1 0.34,0.34 z m 0,-11.28 a 0.35,0.35 0 0 1 -0.34,0.35 h -12.78 a 0.35,0.35 0 0 1 -0.34,-0.35 v -4.36 a 0.34,0.34 0 0 1 0.34,-0.34 h 12.78 a 0.34,0.34 0 0 1 0.34,0.34 z m 0,-11.27 a 0.34,0.34 0 0 1 -0.34,0.34 h -12.78 a 0.34,0.34 0 0 1 -0.34,-0.34 v -4.37 a 0.34,0.34 0 0 1 0.34,-0.34 h 12.78 a 0.34,0.34 0 0 1 0.34,0.34 z m 0,-11.27 a 0.34,0.34 0 0 1 -0.34,0.34 h -12.78 a 0.34,0.34 0 0 1 -0.34,-0.34 v -4.37 a 0.34,0.34 0 0 1 0.34,-0.34 h 12.78 a 0.34,0.34 0 0 1 0.34,0.34 z m 0,-11.28 a 0.34,0.34 0 0 1 -0.34,0.34 h -12.78 a 0.34,0.34 0 0 1 -0.34,-0.34 v -4.35 a 0.34,0.34 0 0 1 0.34,-0.34 h 12.78 a 0.34,0.34 0 0 1 0.34,0.34 z m 30.29,67.65 a 0.34,0.34 0 0 1 -0.34,0.34 h -12.78 a 0.34,0.34 0 0 1 -0.34,-0.34 v -4.37 a 0.34,0.34 0 0 1 0.34,-0.34 h 12.78 a 0.34,0.34 0 0 1 0.34,0.34 z m 0,-11.28 a 0.34,0.34 0 0 1 -0.34,0.34 h -12.78 a 0.34,0.34 0 0 1 -0.34,-0.34 v -4.36 a 0.34,0.34 0 0 1 0.34,-0.34 h 12.78 a 0.34,0.34 0 0 1 0.34,0.34 z m 0,-11.27 a 0.34,0.34 0 0 1 -0.34,0.34 h -12.78 a 0.34,0.34 0 0 1 -0.34,-0.34 v -4.37 a 0.34,0.34 0 0 1 0.34,-0.34 h 12.78 a 0.34,0.34 0 0 1 0.34,0.34 z m 0,-11.28 a 0.35,0.35 0 0 1 -0.34,0.35 h -12.78 a 0.35,0.35 0 0 1 -0.34,-0.35 v -4.36 a 0.34,0.34 0 0 1 0.34,-0.34 h 12.78 a 0.34,0.34 0 0 1 0.34,0.34 z m 0,-11.27 a 0.34,0.34 0 0 1 -0.34,0.34 h -12.78 a 0.34,0.34 0 0 1 -0.34,-0.34 v -4.37 a 0.34,0.34 0 0 1 0.34,-0.34 h 12.78 a 0.34,0.34 0 0 1 0.34,0.34 z m 0,-11.27 a 0.34,0.34 0 0 1 -0.34,0.34 h -12.78 a 0.34,0.34 0 0 1 -0.34,-0.34 v -4.37 a 0.34,0.34 0 0 1 0.34,-0.34 h 12.78 a 0.34,0.34 0 0 1 0.34,0.34 z m 0,-11.28 a 0.34,0.34 0 0 1 -0.34,0.34 h -12.78 a 0.34,0.34 0 0 1 -0.34,-0.34 v -4.35 a 0.34,0.34 0 0 1 0.34,-0.34 h 12.78 a 0.34,0.34 0 0 1 0.34,0.34 z m 20.7,67.65 a 0.34,0.34 0 0 1 -0.34,0.34 h -12.78 a 0.34,0.34 0 0 1 -0.34,-0.34 v -4.37 a 0.34,0.34 0 0 1 0.34,-0.34 h 12.74 a 0.34,0.34 0 0 1 0.34,0.34 z m 0,-11.28 a 0.34,0.34 0 0 1 -0.34,0.34 h -12.78 a 0.34,0.34 0 0 1 -0.34,-0.34 v -4.36 a 0.34,0.34 0 0 1 0.34,-0.34 h 12.74 a 0.34,0.34 0 0 1 0.34,0.34 z m 0,-11.27 a 0.34,0.34 0 0 1 -0.34,0.34 h -12.78 a 0.34,0.34 0 0 1 -0.34,-0.34 v -4.37 a 0.34,0.34 0 0 1 0.34,-0.34 h 12.74 a 0.34,0.34 0 0 1 0.34,0.34 z m 0,-11.28 a 0.35,0.35 0 0 1 -0.34,0.35 h -12.78 a 0.35,0.35 0 0 1 -0.34,-0.35 v -4.36 a 0.34,0.34 0 0 1 0.34,-0.34 h 12.74 a 0.34,0.34 0 0 1 0.34,0.34 z m 0,-11.27 a 0.34,0.34 0 0 1 -0.34,0.34 h -12.78 a 0.34,0.34 0 0 1 -0.34,-0.34 v -4.37 a 0.34,0.34 0 0 1 0.34,-0.34 h 12.74 a 0.34,0.34 0 0 1 0.34,0.34 z m 0,-11.27 a 0.34,0.34 0 0 1 -0.34,0.34 h -12.78 a 0.34,0.34 0 0 1 -0.34,-0.34 v -4.37 a 0.34,0.34 0 0 1 0.34,-0.34 h 12.74 a 0.34,0.34 0 0 1 0.34,0.34 z m 0,-11.28 a 0.34,0.34 0 0 1 -0.34,0.34 h -12.78 a 0.34,0.34 0 0 1 -0.34,-0.34 v -4.35 a 0.34,0.34 0 0 1 0.34,-0.34 h 12.74 a 0.34,0.34 0 0 1 0.34,0.34 z m 30.29,67.65 a 0.35,0.35 0 0 1 -0.34,0.34 h -12.78 a 0.34,0.34 0 0 1 -0.34,-0.34 v -4.37 a 0.34,0.34 0 0 1 0.34,-0.34 h 12.78 a 0.34,0.34 0 0 1 0.34,0.34 z m 0,-11.28 a 0.34,0.34 0 0 1 -0.34,0.34 h -12.78 a 0.34,0.34 0 0 1 -0.34,-0.34 v -4.36 a 0.34,0.34 0 0 1 0.34,-0.34 h 12.78 a 0.34,0.34 0 0 1 0.34,0.34 z m 0,-11.27 a 0.34,0.34 0 0 1 -0.34,0.34 h -12.78 a 0.34,0.34 0 0 1 -0.34,-0.34 v -4.37 a 0.34,0.34 0 0 1 0.34,-0.34 h 12.78 a 0.35,0.35 0 0 1 0.34,0.34 z m 0,-11.28 a 0.35,0.35 0 0 1 -0.34,0.35 h -12.78 a 0.35,0.35 0 0 1 -0.34,-0.35 v -4.36 a 0.34,0.34 0 0 1 0.34,-0.34 h 12.78 a 0.34,0.34 0 0 1 0.34,0.34 z m 0,-11.27 a 0.34,0.34 0 0 1 -0.34,0.34 h -12.78 a 0.34,0.34 0 0 1 -0.34,-0.34 v -4.37 a 0.34,0.34 0 0 1 0.34,-0.34 h 12.78 a 0.35,0.35 0 0 1 0.34,0.34 z m 0,-11.27 a 0.35,0.35 0 0 1 -0.34,0.34 h -12.78 a 0.34,0.34 0 0 1 -0.34,-0.34 v -4.37 a 0.34,0.34 0 0 1 0.34,-0.34 h 12.78 a 0.34,0.34 0 0 1 0.34,0.34 z m 0,-11.28 a 0.34,0.34 0 0 1 -0.34,0.34 h -12.78 a 0.34,0.34 0 0 1 -0.34,-0.34 v -4.35 a 0.34,0.34 0 0 1 0.34,-0.34 h 12.78 a 0.34,0.34 0 0 1 0.34,0.34 z"
     fill="#4e73df"
     opacity="0.1"
     id="path18" />
  <path
     d="m 701.91532,612.97784 a 7.39,7.39 0 0 0 -4.26,0.46 6.34,6.34 0 0 1 -2.55,0.54 6.24,6.24 0 0 1 -2.57,-0.55 7.18,7.18 0 0 0 -6,0.12 3.72,3.72 0 0 1 -1.73,0.43 c -2.44,0 -4.47,-2.46 -4.89,-5.7 a 4.82,4.82 0 0 0 1.22,-1.32 6.86,6.86 0 0 1 12.25,0 4.68,4.68 0 0 0 4,2.23 h 0.07 c 1.96,-0.04 3.64,1.51 4.46,3.79 z"
     fill="#4e73df"
     opacity="0.1"
     id="path19" />
  <path
     d="m 709.35532,602.78784 -4,2.51 2.4,-4.36 a 3.92,3.92 0 0 0 -2.39,-0.85 h -0.01 a 5.55,5.55 0 0 1 -0.82,-0.06 l -1.34,0.84 0.58,-1 a 4.72,4.72 0 0 1 -2.34,-1.77 l -2.4,1.51 1.52,-2.75 a 7,7 0 0 0 -5.37,-2.71 7.35,7.35 0 0 0 -6.14,3.79 4.6,4.6 0 0 1 -4.06,2.19 h -0.13 c -2.75,0 -5,3.11 -5,7 0,3.89 2.23,7 5,7 a 3.73,3.73 0 0 0 1.73,-0.44 7.18,7.18 0 0 1 6,-0.11 6.41,6.41 0 0 0 2.57,0.55 6.34,6.34 0 0 0 2.55,-0.54 7.19,7.19 0 0 1 6,0.11 3.64,3.64 0 0 0 1.71,0.43 c 2.75,0 5,-3.12 5,-7 a 8.86,8.86 0 0 0 -1.06,-4.34 z"
     fill="#4e73df"
     opacity="0.1"
     id="path20" />
  <rect
     x="1037.9954"
     y="590.23785"
     width="5.3600001"
     height="44.169998"
     rx="2.29"
     fill="#3f3d56"
     id="rect20" />
  <rect
     x="859.90533"
     y="555.63782"
     width="3.01"
     height="14.54"
     rx="1.5"
     fill="#3f3d56"
     id="rect21" />
  <rect
     x="859.79535"
     y="582.25787"
     width="3.3900001"
     height="25.309999"
     rx="1.6900001"
     fill="#3f3d56"
     id="rect22" />
  <rect
     x="859.84534"
     y="616.41785"
     width="3.23"
     height="25.530001"
     rx="1.61"
     fill="#3f3d56"
     id="rect23" />
  <rect
     x="861.60535"
     y="507.57785"
     width="179.28999"
     height="364.37"
     rx="18.540001"
     fill="#3f3d56"
     id="rect24" />
  <rect
     x="933.95532"
     y="518.45789"
     width="25.040001"
     height="5.0799999"
     rx="2.54"
     fill="#e6e8ec"
     id="rect25" />
  <circle
     cx="965.65533"
     cy="521.00781"
     r="2.8800001"
     fill="#e6e8ec"
     id="circle25" />
  <path
     d="m 1015.5753,517.07784 h -20.51998 v 2.47 a 11.73,11.73 0 0 1 -11.7,11.72 h -65.46 a 11.73,11.73 0 0 1 -11.73,-11.73 v -2.46 h -19.25 a 14.25,14.25 0 0 0 -14.24,14.24 v 316.9 a 14.24,14.24 0 0 0 14.24,14.24 h 128.65998 a 14.23,14.23 0 0 0 14.24,-14.24 v -316.91 a 14.24,14.24 0 0 0 -14.24,-14.23 z"
     fill="#ffffff"
     id="path25" />
  <path
     d="m 1011.5553,692.75784 v 0 a 14.33,14.33 0 0 0 -0.7,-3.83 1.72,1.72 0 0 0 -0.07,-0.21 14.56,14.56 0 0 0 -24.64998,-5 20.46,20.46 0 0 0 -1.16,-4.07 65.66,65.66 0 0 1 -11.55,0.43 47.79,47.79 0 0 0 7.32,2.66 l -0.09,0.33 a 46.82,46.82 0 0 1 -8.18,-3.06 l -0.79,-0.39 0.88,0.06 a 65.38,65.38 0 0 0 12.28,-0.35 20.79,20.79 0 0 0 -3.62,-5.75 61.91,61.91 0 0 1 -19.27,-4.79 l 0.14,-0.32 a 60.89,60.89 0 0 0 18.78,4.73 20.63,20.63 0 0 0 -32.78,3.49 28.35,28.35 0 0 0 -7,-15.94 66.32,66.32 0 0 1 -27.87,4.64 46.76,46.76 0 0 0 7.32,2.66 l -0.09,0.33 a 46.82,46.82 0 0 1 -8.18,-3.06 l -0.79,-0.38 0.88,0.06 a 65.26,65.26 0 0 0 28.49,-4.52 c -0.34,-0.37 -0.69,-0.73 -1.05,-1.09 -11.29,0.23 -23.59,0.12 -34.72,-3.94 a 28.4,28.4 0 0 0 -13.48,24.19 c 0,5.33 1.46,12.66 4,20 a 83.69,83.69 0 0 0 4,9.64 q 1.17,2.38 2.47,4.6 v 0 a 54,54 0 0 0 3.45,5.17 l 0.69,0.87 a 32,32 0 0 0 4.3,4.45 v 0 c 0.32,0.27 0.64,0.52 1,0.76 a 18.94,18.94 0 0 0 2.75,1.72 12.92,12.92 0 0 0 5.2,1.41 h 0.43 v 0.05 h 77.08998 v -0.05 h 0.06 a 3.92,3.92 0 0 0 1.3,-0.23 c 2.73,-1 5.24,-4.85 7.32,-9.76 0.47,-1.09 0.91,-2.23 1.33,-3.4 0.42,-1.17 0.72,-2.08 1.05,-3.15 1,-3.2 1.82,-6.49 2.43,-9.47 a 50.32,50.32 0 0 0 1.14,-8.83 c -0.04,-0.22 -0.05,-0.44 -0.06,-0.66 z"
     fill="#4e73df"
     opacity="0.1"
     id="path26" />
  <path
     d="m 939.42532,659.07784 a 28.3,28.3 0 0 0 -34,-3.83 c 10.93,3.83 22.93,4 34,3.83 z"
     fill="#4e73df"
     opacity="0.1"
     id="path27" />
  <path
     d="m 1002.5853,722.37784 -11.89998,-20.61 a 0.38,0.38 0 0 0 -0.66,0 l -11.9,20.61 a 0.38,0.38 0 0 0 0.33,0.57 h 3.55 a 0.38,0.38 0 0 1 0.38,0.38 v 4.4 a 0.38,0.38 0 0 0 0.38,0.38 h 4.59 a 0.38,0.38 0 0 0 0.38,-0.38 v -2.12 a 0.38,0.38 0 0 1 0.38,-0.38 h 4.4 a 0.38,0.38 0 0 1 0.38,0.38 v 2.12 a 0.38,0.38 0 0 0 0.38,0.38 h 4.62998 a 0.38,0.38 0 0 0 0.36,-0.26 0.37,0.37 0 0 0 0,-0.12 v -4.4 a 0.38,0.38 0 0 1 0.38,-0.38 h 3.55 a 0.38,0.38 0 0 0 0.39,-0.57 z m -16.58998,2.28 a 0.39,0.39 0 0 1 -0.27,0.11 h -1.67 a 0.38,0.38 0 0 1 -0.38,-0.38 0.35,0.35 0 0 1 0.11,-0.26 0.4,0.4 0 0 1 0.27,-0.12 h 1.67 a 0.38,0.38 0 0 1 0.38,0.38 0.37,0.37 0 0 1 -0.11,0.27 z m 10.92998,0 a 0.37,0.37 0 0 1 -0.27,0.11 h -1.66998 a 0.38,0.38 0 0 1 -0.38,-0.38 0.35,0.35 0 0 1 0.11,-0.26 0.4,0.4 0 0 1 0.27,-0.12 h 1.66998 a 0.38,0.38 0 0 1 0.38,0.38 0.37,0.37 0 0 1 -0.11,0.27 z"
     fill="#4e73df"
     opacity="0.1"
     id="path28" />
  <path
     d="m 929.03532,722.55784 -11.9,-20.61 a 0.38,0.38 0 0 0 -0.66,0 l -10.27,17.8 a 32,32 0 0 0 4.3,4.45 h 1.67 a 0.38,0.38 0 1 1 0,0.75 h -0.7 a 18.94,18.94 0 0 0 2.75,1.72 v -0.88 a 0.38,0.38 0 0 1 0.38,-0.38 h 4.41 a 0.38,0.38 0 0 1 0.37,0.38 v 2.12 a 0.39,0.39 0 0 0 0.38,0.38 h 4.64 a 0.38,0.38 0 0 0 0.3,-0.15 0.35,0.35 0 0 0 0.07,-0.23 v -4.4 a 0.38,0.38 0 0 1 0.38,-0.38 h 3.55 a 0.38,0.38 0 0 0 0.33,-0.57 z m -7.86,1.75 a 0.35,0.35 0 0 1 0.26,-0.11 h 1.67 a 0.38,0.38 0 1 1 0,0.75 h -1.67 a 0.38,0.38 0 0 1 -0.38,-0.38 0.37,0.37 0 0 1 0.12,-0.26 z m -7.48,-7.63 a 0.38,0.38 0 0 1 -0.38,-0.38 v -2.88 a 0.38,0.38 0 0 1 0.38,-0.38 h 6.23 a 0.38,0.38 0 0 1 0.38,0.38 v 2.88 a 0.38,0.38 0 0 1 -0.38,0.38 z"
     fill="#4e73df"
     opacity="0.1"
     id="path29" />
  <path
     d="m 976.07532,685.53784 h -14.72 v -3.19 a 0.76,0.76 0 0 0 -0.76,-0.76 h -4.34 v -3.39 a 0.48,0.48 0 0 0 -0.47,-0.48 h -5.57 a 0.48,0.48 0 0 0 -0.48,0.48 v 3.39 h -5.09 a 0.76,0.76 0 0 0 -0.76,0.76 v 3.19 h -14 a 0.15,0.15 0 0 0 -0.15,0.15 v 42.28 a 0.16,0.16 0 0 0 0.15,0.16 h 9.33 a 0.16,0.16 0 0 0 0.16,-0.16 v -5.69 a 0.15,0.15 0 0 1 0.15,-0.15 h 3.94 a 0.16,0.16 0 0 1 0.16,0.15 v 5.69 a 0.16,0.16 0 0 0 0.15,0.16 h 18.44 a 0.16,0.16 0 0 0 0.16,-0.16 v -5.69 a 0.15,0.15 0 0 1 0.15,-0.15 h 3.94 a 0.16,0.16 0 0 1 0.16,0.15 v 5.69 a 0.16,0.16 0 0 0 0.15,0.16 h 9.34 a 0.16,0.16 0 0 0 0.15,-0.16 v -42.28 a 0.15,0.15 0 0 0 -0.19,-0.15 z m -38.41,34.61 a 0.16,0.16 0 0 1 -0.16,0.16 h -5.76 a 0.16,0.16 0 0 1 -0.16,-0.16 v -2 a 0.16,0.16 0 0 1 0.16,-0.15 h 5.76 a 0.16,0.16 0 0 1 0.16,0.15 z m 0,-5.08 a 0.16,0.16 0 0 1 -0.16,0.15 h -5.76 a 0.16,0.16 0 0 1 -0.16,-0.15 v -2 a 0.16,0.16 0 0 1 0.16,-0.16 h 5.76 a 0.16,0.16 0 0 1 0.16,0.16 z m 0,-5.09 a 0.16,0.16 0 0 1 -0.16,0.16 h -5.76 a 0.16,0.16 0 0 1 -0.16,-0.16 v -2 a 0.16,0.16 0 0 1 0.16,-0.15 h 5.76 a 0.16,0.16 0 0 1 0.16,0.15 z m 0,-5.09 a 0.16,0.16 0 0 1 -0.16,0.16 h -5.76 a 0.16,0.16 0 0 1 -0.16,-0.16 v -2 a 0.16,0.16 0 0 1 0.16,-0.16 h 5.76 a 0.16,0.16 0 0 1 0.16,0.16 z m 0,-5.08 a 0.16,0.16 0 0 1 -0.16,0.15 h -5.76 a 0.16,0.16 0 0 1 -0.16,-0.15 v -2 a 0.16,0.16 0 0 1 0.16,-0.15 h 5.76 a 0.16,0.16 0 0 1 0.16,0.15 z m 0,-5.09 a 0.16,0.16 0 0 1 -0.16,0.16 h -5.76 a 0.16,0.16 0 0 1 -0.16,-0.16 v -2 a 0.16,0.16 0 0 1 0.16,-0.15 h 5.76 a 0.16,0.16 0 0 1 0.16,0.15 z m 0,-5.08 a 0.16,0.16 0 0 1 -0.16,0.15 h -5.76 a 0.16,0.16 0 0 1 -0.16,-0.15 v -2 a 0.16,0.16 0 0 1 0.16,-0.16 h 5.76 a 0.16,0.16 0 0 1 0.16,0.16 z m 13.69,30.51 a 0.16,0.16 0 0 1 -0.15,0.16 h -5.77 a 0.16,0.16 0 0 1 -0.15,-0.16 v -2 a 0.15,0.15 0 0 1 0.15,-0.15 h 5.77 a 0.15,0.15 0 0 1 0.15,0.15 z m 0,-5.08 a 0.15,0.15 0 0 1 -0.15,0.15 h -5.77 a 0.15,0.15 0 0 1 -0.15,-0.15 v -2 a 0.16,0.16 0 0 1 0.15,-0.16 h 5.77 a 0.16,0.16 0 0 1 0.15,0.16 z m 0,-5.09 a 0.16,0.16 0 0 1 -0.15,0.16 h -5.77 a 0.16,0.16 0 0 1 -0.15,-0.16 v -2 a 0.15,0.15 0 0 1 0.15,-0.15 h 5.77 a 0.15,0.15 0 0 1 0.15,0.15 z m 0,-5.09 a 0.16,0.16 0 0 1 -0.15,0.16 h -5.77 a 0.16,0.16 0 0 1 -0.15,-0.16 v -2 a 0.16,0.16 0 0 1 0.15,-0.16 h 5.77 a 0.16,0.16 0 0 1 0.15,0.16 z m 0,-5.08 a 0.15,0.15 0 0 1 -0.15,0.15 h -5.77 a 0.15,0.15 0 0 1 -0.15,-0.15 v -2 a 0.15,0.15 0 0 1 0.15,-0.15 h 5.77 a 0.15,0.15 0 0 1 0.15,0.15 z m 0,-5.09 a 0.16,0.16 0 0 1 -0.15,0.16 h -5.77 a 0.16,0.16 0 0 1 -0.15,-0.16 v -2 a 0.15,0.15 0 0 1 0.15,-0.15 h 5.77 a 0.15,0.15 0 0 1 0.15,0.15 z m 0,-5.08 a 0.15,0.15 0 0 1 -0.15,0.15 h -5.77 a 0.15,0.15 0 0 1 -0.15,-0.15 v -2 a 0.16,0.16 0 0 1 0.15,-0.16 h 5.77 a 0.16,0.16 0 0 1 0.15,0.16 z m 9.34,30.51 a 0.16,0.16 0 0 1 -0.16,0.16 h -5.76 a 0.16,0.16 0 0 1 -0.16,-0.16 v -2 a 0.16,0.16 0 0 1 0.16,-0.15 h 5.76 a 0.16,0.16 0 0 1 0.16,0.15 z m 0,-5.08 a 0.16,0.16 0 0 1 -0.16,0.15 h -5.76 a 0.16,0.16 0 0 1 -0.16,-0.15 v -2 a 0.16,0.16 0 0 1 0.16,-0.16 h 5.76 a 0.16,0.16 0 0 1 0.16,0.16 z m 0,-5.09 a 0.16,0.16 0 0 1 -0.16,0.16 h -5.76 a 0.16,0.16 0 0 1 -0.16,-0.16 v -2 a 0.16,0.16 0 0 1 0.16,-0.15 h 5.76 a 0.16,0.16 0 0 1 0.16,0.15 z m 0,-5.09 a 0.16,0.16 0 0 1 -0.16,0.16 h -5.76 a 0.16,0.16 0 0 1 -0.16,-0.16 v -2 a 0.16,0.16 0 0 1 0.16,-0.16 h 5.76 a 0.16,0.16 0 0 1 0.16,0.16 z m 0,-5.08 a 0.16,0.16 0 0 1 -0.16,0.15 h -5.76 a 0.16,0.16 0 0 1 -0.16,-0.15 v -2 a 0.16,0.16 0 0 1 0.16,-0.15 h 5.76 a 0.16,0.16 0 0 1 0.16,0.15 z m 0,-5.09 a 0.16,0.16 0 0 1 -0.16,0.16 h -5.76 a 0.16,0.16 0 0 1 -0.16,-0.16 v -2 a 0.16,0.16 0 0 1 0.16,-0.15 h 5.76 a 0.16,0.16 0 0 1 0.16,0.15 z m 0,-5.08 a 0.16,0.16 0 0 1 -0.16,0.15 h -5.76 a 0.16,0.16 0 0 1 -0.16,-0.15 v -2 a 0.16,0.16 0 0 1 0.16,-0.16 h 5.76 a 0.16,0.16 0 0 1 0.16,0.16 z m 13.66,30.51 a 0.16,0.16 0 0 1 -0.15,0.16 h -5.77 a 0.16,0.16 0 0 1 -0.15,-0.16 v -2 a 0.15,0.15 0 0 1 0.15,-0.15 h 5.77 a 0.15,0.15 0 0 1 0.15,0.15 z m 0,-5.08 a 0.15,0.15 0 0 1 -0.15,0.15 h -5.77 a 0.15,0.15 0 0 1 -0.15,-0.15 v -2 a 0.16,0.16 0 0 1 0.15,-0.16 h 5.77 a 0.16,0.16 0 0 1 0.15,0.16 z m 0,-5.09 a 0.16,0.16 0 0 1 -0.15,0.16 h -5.77 a 0.16,0.16 0 0 1 -0.15,-0.16 v -2 a 0.15,0.15 0 0 1 0.15,-0.15 h 5.77 a 0.15,0.15 0 0 1 0.15,0.15 z m 0,-5.09 a 0.16,0.16 0 0 1 -0.15,0.16 h -5.77 a 0.16,0.16 0 0 1 -0.15,-0.16 v -2 a 0.16,0.16 0 0 1 0.15,-0.16 h 5.77 a 0.16,0.16 0 0 1 0.15,0.16 z m 0,-5.08 a 0.15,0.15 0 0 1 -0.15,0.15 h -5.77 a 0.15,0.15 0 0 1 -0.15,-0.15 v -2 a 0.15,0.15 0 0 1 0.15,-0.15 h 5.77 a 0.15,0.15 0 0 1 0.15,0.15 z m 0,-5.09 a 0.16,0.16 0 0 1 -0.15,0.16 h -5.77 a 0.16,0.16 0 0 1 -0.15,-0.16 v -2 a 0.15,0.15 0 0 1 0.15,-0.15 h 5.77 a 0.15,0.15 0 0 1 0.15,0.15 z m 0,-5.08 a 0.15,0.15 0 0 1 -0.15,0.15 h -5.77 a 0.15,0.15 0 0 1 -0.15,-0.15 v -2 a 0.16,0.16 0 0 1 0.15,-0.16 h 5.77 a 0.16,0.16 0 0 1 0.15,0.16 z"
     fill="#4e73df"
     opacity="0.1"
     id="path30" />
  <path
     d="m 934.12532,674.07784 a 3.33,3.33 0 0 0 -1.92,0.21 2.82,2.82 0 0 1 -1.15,0.24 2.72,2.72 0 0 1 -1.16,-0.25 3.27,3.27 0 0 0 -2.72,0.06 1.73,1.73 0 0 1 -0.78,0.19 c -1.1,0 -2,-1.11 -2.21,-2.57 a 2.06,2.06 0 0 0 0.55,-0.59 3.1,3.1 0 0 1 5.53,0 2.11,2.11 0 0 0 1.83,1 v 0 a 2.28,2.28 0 0 1 2.03,1.71 z"
     fill="#4e73df"
     opacity="0.1"
     id="path31" />
  <path
     d="m 937.48532,669.48784 -1.78,1.12 1.08,-2 a 1.75,1.75 0 0 0 -1.08,-0.39 v 0 a 1.51,1.51 0 0 1 -0.37,0 l -0.61,0.38 0.26,-0.47 a 2.19,2.19 0 0 1 -1.05,-0.8 l -1.08,0.68 0.68,-1.24 a 3.16,3.16 0 0 0 -2.42,-1.22 3.3,3.3 0 0 0 -2.76,1.73 2.09,2.09 0 0 1 -1.83,1 h -0.06 c -1.24,0 -2.25,1.41 -2.25,3.14 0,1.73 1,3.14 2.25,3.14 a 1.64,1.64 0 0 0 0.78,-0.19 3.23,3.23 0 0 1 2.72,0 2.9,2.9 0 0 0 2.31,0 3.24,3.24 0 0 1 2.69,0 1.6,1.6 0 0 0 0.77,0.19 c 1.24,0 2.25,-1.4 2.25,-3.14 a 4,4 0 0 0 -0.5,-1.93 z"
     fill="#4e73df"
     opacity="0.1"
     id="path32" />
  <path
     d="m 149.00532,861.66784 a 37,37 0 0 1 -0.8,7.76 c -0.1,0.48 -0.21,0.95 -0.32,1.41 -2.84,11.39 -10.85,19.72 -20.41,20.25 -0.32,0 -0.64,0 -1,0 -10.10999,0 -18.65999,-8.72 -21.47999,-20.73 -0.08,-0.32 -0.15,-0.64 -0.22,-1 a 37,37 0 0 1 -0.8,-7.76 c 0,-16.27 10.07,-29.45 22.49999,-29.45 12.43,0 22.53,13.25 22.53,29.52 z"
     fill="#3f3d56"
     id="path33" />
  <path
     d="m 149.00532,861.66784 a 37,37 0 0 1 -0.8,7.76 c -0.1,0.48 -0.21,0.95 -0.32,1.41 -0.34,0 -0.67,0 -1,0 a 45.76,45.76 0 0 1 -7.36,-1 44.92,44.92 0 0 1 -6.56,1.5 45.87,45.87 0 0 1 -5.14,0.48 h -1.74 a 46.41,46.41 0 0 1 -6.15999,-0.41 45.17,45.17 0 0 1 -9.67,-2.4 45.56,45.56 0 0 1 -5.22,1.4 c -0.08,-0.32 -0.15001,-0.64 -0.22,-1 a 37,37 0 0 1 -0.8,-7.76 c 0,-16.27 10.07,-29.45 22.49999,-29.45 12.43,0 22.49,13.2 22.49,29.47 z"
     opacity="0.1"
     id="path34" />
  <path
     d="m 197.00532,806.79784 a 45.6,45.6 0 0 0 -4.9,-20.61 l -26.46,8.23 23.23,-13.65 a 45.71,45.71 0 0 0 -34.36,-19.59 45.65,45.65 0 0 0 -3.57,-4.72 l -38,11.83 31.17,-18.33 a 45.73,45.73 0 0 0 -71.999995,24.39 l 32.549995,37.47 -35.309995,-25.54 a 45.74,45.74 0 0 0 40.930005,80.7 45.92,45.92 0 0 0 29.27999,0.81 45.74,45.74 0 0 0 55.62,-44.66 c 0,-1 0,-2 -0.1,-3 a 45.74,45.74 0 0 0 1.92,-13.33 z"
     fill="#4e73df"
     id="path35" />
  <path
     d="m 196.21532,815.27784 a 122.14,122.14 0 0 0 -42.34,-0.54 c -15.89,2.63 -32.13,8.42 -47.67,4.19 -9.12,-2.48 -16.999995,-8.22 -25.909995,-11.41 a 49.18,49.18 0 0 0 -26.75,-1.6 45.76,45.76 0 0 0 56.689995,61.06 45.92,45.92 0 0 0 29.28,0.81 45.74,45.74 0 0 0 55.62,-44.66 c 0,-1 0,-2 -0.1,-3 a 46,46 0 0 0 1.18,-4.85 z"
     opacity="0.1"
     id="path36" />
  <path
     d="m 543.06532,527.20784 -19,-0.84 c -4.35,-0.19 -9.31,-0.13 -12.21,3.11 -3.09,3.45 -2.28,8.87 -0.46,13.14 1.82,4.27 4.48,8.36 4.62,13 0.21,7.3 -5.78,13.08 -11.21,18 -5.43,4.92 -11.23,11 -10.44,18.27 0.62,5.67 5.14,10.05 9.6,13.59 a 128.25,128.25 0 0 0 21.85,14 c 4.43,2.24 9.15,4.26 14.12,4.31 4.36,0.05 8.58,-1.42 12.68,-2.9 7.13,-2.56 14.45,-5.33 19.86,-10.62 a 39.92,39.92 0 0 0 6.9,-9.54 c 9.35,-17 11.84,-38.26 4.24,-56.13 a 31.55,31.55 0 0 0 -7,-10.66 c -8.1,-7.67 -20.46,-8 -31.62,-7.91 a 12.39,12.39 0 0 0 -5.92,1.05 c -1.77,1 -3,3.23 -2.18,5.08"
     fill="#393859"
     id="path37" />
  <path
     d="m 518.74532,762.44784 a 411.28,411.28 0 0 0 2.24,60.27 c 0.26,2.29 0.53,4.58 1,6.84 1.28,7 3.9,13.71 5.95,20.54 2.05,6.83 3.57,14 2.56,21.07 q 6.6,-0.69 13.22,-1.13 l 0.06,-3.4 c 0.12,-6.52 -2.44,-12.88 -1.79,-19.37 0.62,-6.14 2.6,-12.14 2.51,-18.31 -0.09,-5.83 -2,-11.45 -2.91,-17.21 a 97.73,97.73 0 0 1 -0.82,-11.6 146.49,146.49 0 0 1 0.1,-16 c 0.84,-10.82 4.06,-21.6 2.57,-32.35 -8.16,3.76 -16.58,6.93 -24.69,10.65 z"
     fill="#a0616a"
     id="path38" />
  <path
     d="m 538.71532,894.46784 a 3,3 0 0 0 1.47,-0.24 3.2,3.2 0 0 0 1.17,-2.15 26.23,26.23 0 0 1 3.36,-7.55 c 1.13,-1.73 2.51,-3.49 2.53,-5.55 0,-3.33 -3.48,-5.66 -4.21,-8.91 a 14.38,14.38 0 0 0 -0.62,-3.08 c -0.82,-1.75 -3,-2.35 -4.88,-2.74 -2.56,-0.54 -5.87,-0.76 -7.14,1.52 -1.08,1.94 0.12,4.3 0.28,6.51 0.2,3 -1.58,5.76 -3.5,8.07 -2.25,2.72 -8.16,9.23 -4.56,13 1.35,1.42 4.29,0.94 6,1 z"
     fill="#3f3d56"
     id="path39" />
  <path
     d="m 577.35532,762.44784 a 409.91,409.91 0 0 1 -2.25,60.27 c -0.25,2.29 -0.52,4.58 -0.94,6.84 -1.28,7 -3.9,13.71 -6,20.54 -2.1,6.83 -3.56,14 -2.55,21.07 q -6.6,-0.69 -13.22,-1.13 l -0.06,-3.4 c -0.12,-6.52 2.43,-12.88 1.78,-19.37 -0.61,-6.14 -2.59,-12.14 -2.5,-18.31 0.09,-5.83 2,-11.45 2.9,-17.21 a 95.67,95.67 0 0 0 0.83,-11.6 146.49,146.49 0 0 0 -0.1,-16 c -0.84,-10.82 -4.07,-21.6 -2.57,-32.35 8.19,3.76 16.6,6.93 24.68,10.65 z"
     fill="#a0616a"
     id="path40" />
  <path
     d="m 557.41532,894.46784 a 3,3 0 0 1 -1.46,-0.24 3.2,3.2 0 0 1 -1.21,-2.15 26.23,26.23 0 0 0 -3.36,-7.55 c -1.13,-1.73 -2.52,-3.49 -2.53,-5.55 0,-3.33 3.48,-5.66 4.2,-8.91 a 14.39,14.39 0 0 1 0.63,-3.08 c 0.82,-1.75 3,-2.35 4.88,-2.74 2.56,-0.54 5.86,-0.76 7.14,1.52 1.08,1.94 -0.13,4.3 -0.28,6.51 -0.21,3 1.58,5.76 3.5,8.07 2.25,2.72 8.16,9.23 4.56,13 -1.35,1.42 -4.29,0.94 -6,1 z"
     fill="#3f3d56"
     id="path41" />
  <circle
     cx="541.66534"
     cy="564.65784"
     r="20.49"
     fill="#a0616a"
     id="circle41" />
  <path
     d="m 530.05532,583.12784 a 7,7 0 0 1 0.3,2.95 5.74,5.74 0 0 1 -1.72,2.66 30.58,30.58 0 0 1 -10.15,6.77 c -0.4,1.29 0.35,2.62 1.08,3.74 2.46,3.79 5.06,7.47 7.67,11.16 a 74.72,74.72 0 0 0 17.43,18.77 l 6,-7.54 a 48.75,48.75 0 0 0 3.48,-4.73 47.18,47.18 0 0 0 3.12,-6.39 l 7.33,-17 c -4.41,0.89 -8.89,-1.14 -12.66,-3.61 a 4.94,4.94 0 0 1 -1.84,-1.76 5,5 0 0 1 -0.4,-2.18 q -0.18,-5.3 -0.15,-10.59 a 136.14,136.14 0 0 0 -16,-1.25 c -2.08,0 -3.48,-0.44 -4,1.76 -0.52,2.2 0.06,5.11 0.51,7.24 z"
     fill="#a0616a"
     id="path42" />
  <path
     d="m 539.15532,621.68784 a 78.77,78.77 0 0 0 -12,-16 10.8,10.8 0 0 1 -2.51,-3.29 10,10 0 0 1 -0.56,-3.18 l -0.36,-5.29 a 1.23,1.23 0 0 0 -0.27,-0.82 1.19,1.19 0 0 0 -0.81,-0.23 6.77,6.77 0 0 0 -3.71,0.54 10.4,10.4 0 0 0 -2,1.84 c -2.29,2.35 -5.51,3.46 -8.53,4.73 a 68.63,68.63 0 0 0 -6.58,3.17 c -1.69,0.93 -3.43,2 -4.19,3.8 a 9.39,9.39 0 0 0 -0.54,3.58 l -0.74,42.54 a 2.25,2.25 0 0 1 -1.68,2.51 6.1,6.1 0 0 0 -2.32,1.77 2.4,2.4 0 0 0 -0.09,2.75 c 0.3,0.39 0.76,0.63 1.07,1 1,1.19 0.13,2.91 -0.54,4.29 a 9.32,9.32 0 0 0 -1,5.81 5,5 0 0 0 3.92,4 c 0.79,-2.55 -1,-5.44 0,-7.91 a 5.67,5.67 0 0 1 3.42,-2.85 12.29,12.29 0 0 1 6.24,-0.68 l 1.2,4.37 c 4.31,15.74 1.32,32.65 -2.61,48.49 -0.91,3.7 -2.06,7.34 -2.74,11.09 -1,5.63 -1,11.38 -1,17.1 v 15.64 c 0,1.9 0.12,4.05 1.57,5.28 1.45,1.23 4.12,1.14 5.21,2.84 0.63,1 0.51,2.29 1.08,3.31 a 4.38,4.38 0 0 0 1.7,1.55 11.44,11.44 0 0 0 14.91,-3.66 c 1.08,-1.71 1.73,-3.78 3.33,-5 1.83,-1.43 4.37,-1.39 6.68,-1.28 l 13.62,0.65 a 28.19,28.19 0 0 1 6.92,0.91 53.46,53.46 0 0 1 5.88,2.54 30.29,30.29 0 0 0 13.77,2.5 8,8 0 0 0 3.72,-0.9 c 1.3,-0.78 2.2,-2.2 3.63,-2.73 1.61,-0.6 3.68,0 4.93,-1.17 a 4.47,4.47 0 0 0 1,-3.17 l 0.57,-13.37 c 0.6,-13.79 1.13,-28 -3.42,-41 -1.11,-3.17 -2.51,-6.24 -3.36,-9.49 a 93.86,93.86 0 0 1 -1.61,-10.19 c -1.41,-9.51 -4.62,-18.87 -4,-28.46 0,-0.73 0.64,-0.9 1.36,-1 2.54,-0.25 5.31,0.22 7.12,2 1.61,1.6 2.18,4 2.36,6.23 a 7,7 0 0 1 -0.86,4.68 l 3.76,-2.76 c 1.2,-0.88 2.54,-2.09 2.3,-3.56 -0.71,-4.37 -0.47,-9.26 -1,-13.65 a 199.36,199.36 0 0 0 -3.59,-22.16 58.25,58.25 0 0 1 -1.45,-6.32 c -0.36,-2.92 -0.16,-5.87 -0.35,-8.81 a 33.18,33.18 0 0 0 -3.14,-12 12.26,12.26 0 0 0 -2,-3.18 13.94,13.94 0 0 0 -3.88,-2.68 79.93,79.93 0 0 0 -19.63,-7.13 c -1.35,-0.29 -2.9,-0.51 -4,0.33 -1.4,1.08 -1.24,3.25 -0.62,4.91 0.62,1.66 1.57,3.33 1.3,5.08 -0.27,1.75 -1.76,3.13 -3,4.52 -3.17,3.71 -4.61,8.71 -8,12.25 -1.45,1.63 -3.55,3.08 -3.88,5.32 z"
     fill="#ff6f61"
     id="path43" />
  <path
     d="m 526.42532,554.53784 c 1.73,1.44 3.18,3.44 5.38,3.91 5.3,1.12 9.44,-7.45 14.54,-5.62 1.86,0.67 3,2.52 4.43,3.82 a 8.77,8.77 0 0 0 12,-0.87 c 2.68,-3.13 2.71,-7.65 2.61,-11.77 a 8.85,8.85 0 0 0 -0.89,-4.42 7.12,7.12 0 0 0 -1.77,-1.86 c -6.05,-4.73 -14.22,-5.41 -21.88,-5.9 a 16,16 0 0 0 -5,0.21 c -2.28,0.58 -4.16,2.12 -6,3.62 -3.44,2.86 -11.81,8.3 -12.86,12.91 -1.05,4.61 6.04,3.15 9.44,5.97 z"
     fill="#393859"
     id="path44" />
  <rect
     x="502.47531"
     y="616.13788"
     width="74.279999"
     height="80.43"
     rx="2.6099999"
     fill="#4e73df"
     id="rect44" />
  <rect
     x="508.87531"
     y="623.07788"
     width="61.48"
     height="48.650002"
     rx="2.6099999"
     fill="#ffffff"
     id="rect45" />
  <path
     d="m 562.35532,648.53784 v 0 a 5.8,5.8 0 0 0 -0.27,-1.46 v -0.07 a 5.53,5.53 0 0 0 -9.36,-1.9 7.35,7.35 0 0 0 -0.44,-1.54 24.69,24.69 0 0 1 -4.38,0.16 16.21,16.21 0 0 0 2.78,1 v 0.13 a 18.07,18.07 0 0 1 -3.1,-1.16 l -0.3,-0.15 h 0.33 a 24.17,24.17 0 0 0 4.66,-0.13 7.72,7.72 0 0 0 -1.37,-2.18 23.49,23.49 0 0 1 -7.32,-1.82 l 0.06,-0.12 a 23.14,23.14 0 0 0 7.13,1.79 7.83,7.83 0 0 0 -12.45,1.33 10.74,10.74 0 0 0 -2.67,-6.05 25.14,25.14 0 0 1 -10.58,1.76 18.48,18.48 0 0 0 2.78,1 v 0.12 a 18.07,18.07 0 0 1 -3.1,-1.16 l -0.3,-0.14 h 0.33 a 24.79,24.79 0 0 0 10.82,-1.72 c -0.13,-0.14 -0.26,-0.28 -0.4,-0.41 -4.29,0.09 -8.95,0 -13.18,-1.5 a 10.8,10.8 0 0 0 -5.12,9.19 25.33,25.33 0 0 0 1.52,7.6 32.44,32.44 0 0 0 1.52,3.66 c 0.3,0.6 0.61,1.18 0.94,1.74 v 0 a 20.87,20.87 0 0 0 1.31,2 l 0.26,0.33 a 11.48,11.48 0 0 0 1.64,1.69 v 0 a 4.57,4.57 0 0 0 0.36,0.29 7.58,7.58 0 0 0 1.05,0.66 4.87,4.87 0 0 0 2,0.53 h 0.17 v 0 h 29.27 v 0 0 a 1.62,1.62 0 0 0 0.49,-0.08 c 1,-0.37 2,-1.85 2.79,-3.71 0.17,-0.41 0.34,-0.84 0.5,-1.29 0.16,-0.45 0.27,-0.79 0.4,-1.19 0.38,-1.22 0.69,-2.47 0.92,-3.6 a 18.77,18.77 0 0 0 0.43,-3.35 z"
     fill="#4e73df"
     opacity="0.3"
     id="path45" />
  <path
     d="m 535.00532,635.72784 a 10.72,10.72 0 0 0 -12.91,-1.45 c 4.14,1.48 8.7,1.53 12.91,1.45 z"
     fill="#4e73df"
     opacity="0.3"
     id="path46" />
  <path
     d="m 558.98532,659.77784 -4.52,-7.82 a 0.14,0.14 0 0 0 -0.25,0 l -4.52,7.82 a 0.15,0.15 0 0 0 0.13,0.22 h 1.35 a 0.14,0.14 0 0 1 0.14,0.14 v 1.68 a 0.14,0.14 0 0 0 0.14,0.14 h 1.76 a 0.15,0.15 0 0 0 0.15,-0.14 v -0.81 a 0.15,0.15 0 0 1 0.14,-0.15 h 1.67 a 0.15,0.15 0 0 1 0.15,0.15 v 0.81 a 0.14,0.14 0 0 0 0.14,0.14 h 1.76 a 0.13,0.13 0 0 0 0.13,-0.1 v -1.68 a 0.15,0.15 0 0 1 0.15,-0.14 h 1.34 a 0.15,0.15 0 0 0 0.14,-0.26 z m -6.3,0.87 a 0.13,0.13 0 0 1 -0.1,0 h -0.64 a 0.14,0.14 0 0 1 -0.14,-0.14 0.15,0.15 0 0 1 0,-0.1 0.14,0.14 0 0 1 0.1,-0.05 h 0.64 a 0.15,0.15 0 0 1 0.14,0.15 0.13,0.13 0 0 1 0,0.14 z m 4.15,0 a 0.13,0.13 0 0 1 -0.1,0 h -0.64 a 0.14,0.14 0 0 1 -0.14,-0.14 0.15,0.15 0 0 1 0,-0.1 0.14,0.14 0 0 1 0.1,-0.05 h 0.64 a 0.15,0.15 0 0 1 0.14,0.15 0.13,0.13 0 0 1 0,0.14 z"
     fill="#4e73df"
     opacity="0.3"
     id="path47" />
  <path
     d="m 531.05532,659.84784 -4.51,-7.77 a 0.14,0.14 0 0 0 -0.25,0 l -3.94,6.71 a 11.91,11.91 0 0 0 1.64,1.68 h 0.63 a 0.15,0.15 0 0 1 0.15,0.15 0.14,0.14 0 0 1 -0.05,0.1 0.15,0.15 0 0 1 -0.1,0 h -0.27 a 8.55,8.55 0 0 0 1.05,0.65 v -0.29 a 0.15,0.15 0 0 1 0.14,-0.15 h 1.68 a 0.15,0.15 0 0 1 0.14,0.15 v 0.8 a 0.35,0.35 0 0 0 0,0.06 0.17,0.17 0 0 0 0.13,0.09 h 1.76 a 0.14,0.14 0 0 0 0.12,-0.06 0.12,0.12 0 0 0 0,-0.09 v -1.67 a 0.14,0.14 0 0 1 0.14,-0.14 h 1.35 a 0.14534442,0.14534442 0 0 0 0.19,-0.22 z m -3,0.66 a 0.15,0.15 0 0 1 0.1,0 h 0.63 a 0.15,0.15 0 0 1 0.15,0.15 0.14,0.14 0 0 1 -0.05,0.1 0.15,0.15 0 0 1 -0.1,0 h -0.63 a 0.15,0.15 0 0 1 -0.15,-0.14 0.16,0.16 0 0 1 0.07,-0.11 z m -2.84,-2.89 a 0.15,0.15 0 0 1 -0.15,-0.15 v -1.09 a 0.15,0.15 0 0 1 0.15,-0.14 h 2.36 a 0.15,0.15 0 0 1 0.15,0.14 v 1.09 a 0.15,0.15 0 0 1 -0.15,0.15 z"
     fill="#4e73df"
     opacity="0.3"
     id="path48" />
  <path
     d="m 548.91532,645.78784 h -5.56 v -1.2 a 0.29,0.29 0 0 0 -0.29,-0.29 h -1.71 v -1.29 a 0.18,0.18 0 0 0 -0.18,-0.18 h -2.12 a 0.18,0.18 0 0 0 -0.18,0.18 v 1.29 h -1.93 a 0.29,0.29 0 0 0 -0.29,0.29 v 1.2 h -5.3 a 0.06,0.06 0 0 0 -0.06,0.06 v 16.06 a 0.06,0.06 0 0 0 0.06,0.05 h 3.54 c 0,0 0.06,0 0.06,-0.05 v -2.16 a 0.06,0.06 0 0 1 0.06,-0.06 h 1.5 a 0.06,0.06 0 0 1 0.06,0.06 v 2.16 c 0,0 0,0.05 0.06,0.05 h 7 a 0.06,0.06 0 0 0 0.06,-0.05 v -2.16 c 0,0 0,-0.06 0,-0.06 h 1.5 a 0.06,0.06 0 0 1 0.06,0.06 v 2.16 a 0.06,0.06 0 0 0 0.06,0.05 h 3.54 a 0.06,0.06 0 0 0 0.06,-0.05 v -16.06 a 0.06,0.06 0 0 0 0,-0.06 z m -14.56,13.15 a 0.06,0.06 0 0 1 -0.06,0.06 h -2.19 a 0.06,0.06 0 0 1 -0.06,-0.06 v -0.75 a 0.06,0.06 0 0 1 0.06,-0.06 h 2.19 a 0.06,0.06 0 0 1 0.06,0.06 z m 0,-1.93 a 0.06,0.06 0 0 1 -0.06,0.06 h -2.19 a 0.06,0.06 0 0 1 -0.06,-0.06 v -0.75 a 0.06,0.06 0 0 1 0.06,-0.06 h 2.19 a 0.06,0.06 0 0 1 0.06,0.06 z m 0,-1.93 a 0.06,0.06 0 0 1 -0.06,0.05 h -2.19 a 0.06,0.06 0 0 1 -0.06,-0.05 v -0.75 a 0.06,0.06 0 0 1 0.06,-0.06 h 2.19 a 0.06,0.06 0 0 1 0.06,0.06 z m 0,-1.94 a 0.06,0.06 0 0 1 -0.06,0.06 h -2.19 a 0.06,0.06 0 0 1 -0.06,-0.06 v -0.74 a 0.06,0.06 0 0 1 0.06,-0.06 h 2.19 a 0.06,0.06 0 0 1 0.06,0.06 z m 0,-1.93 a 0.06,0.06 0 0 1 -0.06,0.06 h -2.19 a 0.06,0.06 0 0 1 -0.06,-0.06 v -0.74 a 0.06,0.06 0 0 1 0.06,-0.06 h 2.19 a 0.06,0.06 0 0 1 0.06,0.06 z m 0,-1.93 a 0.06,0.06 0 0 1 -0.06,0.06 h -2.19 a 0.06,0.06 0 0 1 -0.06,-0.06 v -0.75 a 0.06,0.06 0 0 1 0.06,-0.05 h 2.19 a 0.06,0.06 0 0 1 0.06,0.05 z m 0,-1.93 a 0.06,0.06 0 0 1 -0.06,0.06 h -2.19 a 0.06,0.06 0 0 1 -0.06,-0.06 v -0.75 a 0.06,0.06 0 0 1 0.06,-0.06 h 2.19 a 0.06,0.06 0 0 1 0.06,0.06 z m 5.19,11.59 a 0.06,0.06 0 0 1 -0.06,0.06 h -2.19 a 0.06,0.06 0 0 1 -0.06,-0.06 v -0.75 a 0.06,0.06 0 0 1 0.06,-0.06 h 2.19 a 0.06,0.06 0 0 1 0.06,0.06 z m 0,-1.93 a 0.06,0.06 0 0 1 -0.06,0.06 h -2.19 a 0.06,0.06 0 0 1 -0.06,-0.06 v -0.75 a 0.06,0.06 0 0 1 0.06,-0.06 h 2.19 a 0.06,0.06 0 0 1 0.06,0.06 z m 0,-1.93 a 0.06,0.06 0 0 1 -0.06,0.05 h -2.19 a 0.06,0.06 0 0 1 -0.06,-0.05 v -0.75 a 0.06,0.06 0 0 1 0.06,-0.06 h 2.19 a 0.06,0.06 0 0 1 0.06,0.06 z m 0,-1.94 a 0.06,0.06 0 0 1 -0.06,0.06 h -2.19 a 0.06,0.06 0 0 1 -0.06,-0.06 v -0.74 a 0.06,0.06 0 0 1 0.06,-0.06 h 2.19 a 0.06,0.06 0 0 1 0.06,0.06 z m 0,-1.93 a 0.06,0.06 0 0 1 -0.06,0.06 h -2.19 a 0.06,0.06 0 0 1 -0.06,-0.06 v -0.74 a 0.06,0.06 0 0 1 0.06,-0.06 h 2.19 a 0.06,0.06 0 0 1 0.06,0.06 z m 0,-1.93 a 0.06,0.06 0 0 1 -0.06,0.06 h -2.19 a 0.06,0.06 0 0 1 -0.06,-0.06 v -0.75 a 0.06,0.06 0 0 1 0.06,-0.05 h 2.19 a 0.06,0.06 0 0 1 0.06,0.05 z m 0,-1.93 a 0.06,0.06 0 0 1 -0.06,0.06 h -2.19 a 0.06,0.06 0 0 1 -0.06,-0.06 v -0.75 a 0.06,0.06 0 0 1 0.06,-0.06 h 2.19 a 0.06,0.06 0 0 1 0.06,0.06 z m 3.54,11.59 a 0.06,0.06 0 0 1 -0.06,0.06 h -2.19 a 0.06,0.06 0 0 1 -0.05,-0.06 v -0.75 a 0.06,0.06 0 0 1 0.05,-0.06 h 2.19 a 0.06,0.06 0 0 1 0.06,0.06 z m 0,-1.93 a 0.06,0.06 0 0 1 -0.06,0.06 h -2.19 a 0.06,0.06 0 0 1 -0.05,-0.06 v -0.75 a 0.06,0.06 0 0 1 0.05,-0.06 h 2.19 a 0.06,0.06 0 0 1 0.06,0.06 z m 0,-1.93 c 0,0 0,0.05 -0.06,0.05 h -2.19 a 0,0 0 0 0 -0.05,-0.05 v -0.75 a 0.06,0.06 0 0 1 0.05,-0.06 h 2.19 a 0.06,0.06 0 0 1 0.06,0.06 z m 0,-1.94 a 0.05,0.05 0 0 1 -0.06,0.06 h -2.19 c 0,0 -0.05,0 -0.05,-0.06 v -0.74 c 0,0 0,-0.06 0.05,-0.06 h 2.19 a 0.05,0.05 0 0 1 0.06,0.06 z m 0,-1.93 a 0.05,0.05 0 0 1 -0.06,0.06 h -2.19 c 0,0 -0.05,0 -0.05,-0.06 v -0.74 c 0,0 0,-0.06 0.05,-0.06 h 2.19 a 0.05,0.05 0 0 1 0.06,0.06 z m 0,-1.93 a 0.06,0.06 0 0 1 -0.06,0.06 h -2.19 a 0.06,0.06 0 0 1 -0.05,-0.06 v -0.75 a 0,0 0 0 0 0.05,-0.05 h 2.19 c 0,0 0.06,0 0.06,0.05 z m 0,-1.93 a 0.06,0.06 0 0 1 -0.06,0.06 h -2.19 a 0.06,0.06 0 0 1 -0.05,-0.06 v -0.75 a 0.06,0.06 0 0 1 0.05,-0.06 h 2.19 a 0.06,0.06 0 0 1 0.06,0.06 z m 5.19,11.59 a 0.06,0.06 0 0 1 -0.06,0.06 h -2.19 a 0.06,0.06 0 0 1 -0.06,-0.06 v -0.75 a 0.06,0.06 0 0 1 0.06,-0.06 h 2.19 a 0.06,0.06 0 0 1 0.06,0.06 z m 0,-1.93 a 0.06,0.06 0 0 1 -0.06,0.06 h -2.19 a 0.06,0.06 0 0 1 -0.06,-0.06 v -0.75 a 0.06,0.06 0 0 1 0.06,-0.06 h 2.19 a 0.06,0.06 0 0 1 0.06,0.06 z m 0,-1.93 a 0.06,0.06 0 0 1 -0.06,0.05 h -2.19 a 0.06,0.06 0 0 1 -0.06,-0.05 v -0.75 a 0.06,0.06 0 0 1 0.06,-0.06 h 2.19 a 0.06,0.06 0 0 1 0.06,0.06 z m 0,-1.94 a 0.06,0.06 0 0 1 -0.06,0.06 h -2.19 a 0.06,0.06 0 0 1 -0.06,-0.06 v -0.74 a 0.06,0.06 0 0 1 0.06,-0.06 h 2.19 a 0.06,0.06 0 0 1 0.06,0.06 z m 0,-1.93 a 0.06,0.06 0 0 1 -0.06,0.06 h -2.19 a 0.06,0.06 0 0 1 -0.06,-0.06 v -0.74 a 0.06,0.06 0 0 1 0.06,-0.06 h 2.19 a 0.06,0.06 0 0 1 0.06,0.06 z m 0,-1.93 a 0.06,0.06 0 0 1 -0.06,0.06 h -2.19 a 0.06,0.06 0 0 1 -0.06,-0.06 v -0.75 a 0.06,0.06 0 0 1 0.06,-0.05 h 2.19 a 0.06,0.06 0 0 1 0.06,0.05 z m 0,-1.93 a 0.06,0.06 0 0 1 -0.06,0.06 h -2.19 a 0.06,0.06 0 0 1 -0.06,-0.06 v -0.75 a 0.06,0.06 0 0 1 0.06,-0.06 h 2.19 a 0.06,0.06 0 0 1 0.06,0.06 z"
     fill="#4e73df"
     opacity="0.3"
     id="path49" />
  <path
     d="m 532.99532,641.43784 a 1.38,1.38 0 0 0 -0.73,0.08 1,1 0 0 1 -0.88,0 1.23,1.23 0 0 0 -1,0 0.61,0.61 0 0 1 -0.3,0.08 c -0.42,0 -0.77,-0.43 -0.84,-1 a 0.77,0.77 0 0 0 0.21,-0.23 1.28,1.28 0 0 1 1,-0.65 1.27,1.27 0 0 1 1,0.65 0.81,0.81 0 0 0 0.69,0.38 v 0 a 0.87,0.87 0 0 1 0.85,0.69 z"
     fill="#4e73df"
     opacity="0.1"
     id="path50" />
  <path
     d="m 534.26532,639.69784 -0.67,0.43 0.41,-0.75 a 0.7,0.7 0 0 0 -0.41,-0.14 h -0.15 l -0.23,0.14 0.09,-0.18 a 0.79,0.79 0 0 1 -0.4,-0.3 l -0.41,0.26 0.26,-0.47 a 1.2,1.2 0 0 0 -0.92,-0.47 1.28,1.28 0 0 0 -1.05,0.65 0.79,0.79 0 0 1 -0.69,0.38 v 0 c -0.47,0 -0.85,0.53 -0.85,1.19 0,0.66 0.38,1.19 0.85,1.19 a 0.73,0.73 0 0 0 0.3,-0.07 1.2,1.2 0 0 1 1,0 1.12,1.12 0 0 0 0.44,0.09 1.08,1.08 0 0 0 0.44,-0.09 1.21,1.21 0 0 1 1,0 0.73,0.73 0 0 0 0.3,0.07 c 0.47,0 0.85,-0.53 0.85,-1.19 a 1.52,1.52 0 0 0 -0.16,-0.74 z"
     fill="#4e73df"
     opacity="0.1"
     id="path51" />
  <ellipse
     cx="500.16531"
     cy="671.72784"
     rx="6.1500001"
     ry="10.25"
     fill="#a0616a"
     id="ellipse51" />
  <ellipse
     cx="581.11536"
     cy="666.59784"
     rx="6.1500001"
     ry="10.25"
     fill="#a0616a"
     id="ellipse52" />
</svg>
